<svg width="21" height="20" viewBox="0 0 21 20" fill="none" xmlns="http://www.w3.org/2000/svg">
<path d="M4.08769 7.1756L9.47432 2.95574C10.25 2.34809 11.3362 2.34809 12.1118 2.95574L17.4985 7.1756C18.1134 7.65731 18.2842 8.37427 18.2927 9.20295C18.2932 9.24787 18.2917 9.29129 18.2883 9.33608C18.2535 9.7957 18.0126 12.6041 17.1222 15.757C16.8075 16.6346 16.0672 17.5 15.0486 17.5H6.53753C5.51899 17.5 4.77865 16.6346 4.464 15.757C3.5736 12.6041 3.33266 9.79569 3.29781 9.33608C3.29441 9.29129 3.29296 9.24787 3.29342 9.20295C3.30198 8.37427 3.47279 7.65731 4.08769 7.1756Z" stroke="white" stroke-width="1.5" stroke-linecap="round"/>
</svg>
