<svg width="36" height="35" viewBox="0 0 36 35" fill="none" xmlns="http://www.w3.org/2000/svg">
<path d="M15.7175 1.92496C16.4359 -0.286185 19.5641 -0.286184 20.2825 1.92496L22.8495 9.82527C23.1708 10.8141 24.0923 11.4836 25.1321 11.4836H33.4389C35.7639 11.4836 36.7305 14.4587 34.8496 15.8253L28.1292 20.7079C27.288 21.3191 26.9361 22.4024 27.2574 23.3912L29.8243 31.2915C30.5428 33.5027 28.012 35.3414 26.1311 33.9748L19.4107 29.0921C18.5695 28.481 17.4305 28.481 16.5893 29.0921L9.86892 33.9748C7.98801 35.3414 5.45726 33.5027 6.1757 31.2915L8.74267 23.3912C9.06397 22.4024 8.71199 21.3191 7.87082 20.7079L1.15041 15.8253C-0.730503 14.4587 0.236159 11.4836 2.56109 11.4836H10.868C11.9077 11.4836 12.8292 10.8141 13.1505 9.82527L15.7175 1.92496Z" fill="#20AFE5"/>
</svg>
